{"title":"Psych 9 (2010)(DivX)(Nl subs) TBS ","uid":6128669,"size":1948743538,"categoryP":"video","categoryS":"movies","magnet":"?xt=urn:btih:f95de2dcf0af085bf9dc3b10cee9c5a6a82dfc28&amp;dn=Psych+9+%282010%29%28DivX%29%28Nl+subs%29+TBS+&amp;tr=udp%3A%2F%2Ftracker.openbittorrent.com%3A80&amp;tr=udp%3A%2F%2Fopen.demonii.com%3A1337&amp;tr=udp%3A%2F%2Ftracker.coppersurfer.tk%3A6969&amp;tr=udp%3A%2F%2Fexodus.desync.com%3A6969","seeders":0,"leechers":0,"uploader":"BlackSam.","files":-1,"time":1296001264,"description":"Psych 9 (2010)(DivX)(Nl subs) TBS       \n  \n \n  \n\n\nVerenigde Staten / Verenigd Koninkrijk / TsjechiÃƒÂ«\nHorror / Thriller\n98 minuten\n\ngeregisseerd door Andrew Shortell\nmet Sara Foster, Cary Elwes en Michael Biehn\n\nRoslyn is een jonge, onstabiele vrouw en ze werkt alleen in een groot, net gesloten ziekenhuis. Op een gegeven moment wordt ze getuige van bizarre gebeurtenissen, die ze in de eerste plaats niet kan plaatsen. Maar dan begint ze langzamerhand te geloven dat deze gebeurtenissen een link hebben met een reeks\nmysterieuze moorden\n\nStoryline\n\nA young woman (Sara Foster) with a troubled past takes a job at recently closed down hospital. Working the night shift alone she begins to experience a series of unsettling events that lead her to believe that the hospital may be connected to a number of recent murders in the area. To uncover the truth she will have to revisit the past behind the walls of Psych:9\n\n\ninfo \n\nCategorie : Beeld \nFormaat : DivX \nBron : Retail\nCover : Yes\nOndertitels : Nederlands (ingebakken)\nThanks: vrijemp3  \n \nGeneral\nComplete name                    : Psych.9.AVI\nFormat                           : AVI\nFormat/Info                      : Audio Video Interleave\nFormat profile                   : OpenDML\nFile size                        : 1.81 GiB\nDuration                         : 1h 38mn\nOverall bit rate                 : 2 650 Kbps\n\nVideo\nID                               : 0\nFormat                           : MPEG-4 Visual\nFormat profile                   : Simple@L3\nFormat settings, BVOP            : No\nFormat settings, QPel            : No\nFormat settings, GMC             : No warppoints\nFormat settings, Matrix          : Default (H.263)\nCodec ID                         : XVID\nCodec ID/Hint                    : XviD\nDuration                         : 1h 38mn\nBit rate                         : 2 197 Kbps\nWidth                            : 1 280 pixels\nHeight                           : 544 pixels\nDisplay aspect ratio             : 2.35:1\nFrame rate                       : 23.976 fps\nColor space                      : YUV\nChroma subsampling               : 4:2:0\nBit depth                        : 8 bits\nScan type                        : Progressive\nBits/(Pixel*Frame)               : 0.132\nStream size                      : 1.50 GiB (83%)\nWriting library                  : ZJMedia MPEG Encoder\n\nAudio\nID                               : 1\nFormat                           : AC-3\nFormat/Info                      : Audio Coding 3\nMode extension                   : CM (complete main)\nCodec ID                         : 2000\nDuration                         : 1h 38mn\nBit rate mode                    : Constant\nBit rate                         : 448 Kbps\nChannel(s)                       : 6 channels\nChannel positions                : Front: L C R, Side: L R, LFE\nSampling rate                    : 48.0 KHz\nBit depth                        : 16 bits\nStream size                      : 314 MiB (17%)\nAlignment                        : Split accross interleaves\nInterleave, duration             : 959 ms (23.00 video frames)      \n\n \n  &lt;a href=&quot;\nhttp://www.imdb.com/title/tt0901504&quot; rel=&quot;nofollow&quot; target=&quot;_NEW&quot;&gt;\nhttp://www.imdb.com/title/tt0901504&lt;/a&gt;  &lt;a href=&quot;\nhttp://www.moviemeter.nl/film/43603&quot; rel=&quot;nofollow&quot; target=&quot;_NEW&quot;&gt;\nhttp://www.moviemeter.nl/film/43603&lt;/a&gt;\n \n\n\nBlack-Sam","torrent":{"xt":"urn:btih:f95de2dcf0af085bf9dc3b10cee9c5a6a82dfc28","amp;dn":"Psych+9+%282010%29%28DivX%29%28Nl+subs%29+TBS+","amp;tr":["udp%3A%2F%2Ftracker.openbittorrent.com%3A80","udp%3A%2F%2Fopen.demonii.com%3A1337","udp%3A%2F%2Ftracker.coppersurfer.tk%3A6969","udp%3A%2F%2Fexodus.desync.com%3A6969"],"infoHash":"f95de2dcf0af085bf9dc3b10cee9c5a6a82dfc28","infoHashBuffer":{"type":"Buffer","data":[249,93,226,220,240,175,8,91,249,220,59,16,206,233,197,166,168,45,252,40]},"announce":[],"urlList":[]}}